<mxfile host="app.diagrams.net" agent="Mozilla/5.0 (Windows NT 10.0; Win64; x64) AppleWebKit/537.36 (KHTML, like Gecko) Chrome/134.0.0.0 Safari/537.36 Edg/134.0.0.0" version="26.1.3">
  <diagram name="第 1 页" id="ICpfweLqGboFNDWWOPyQ">
    <mxGraphModel dx="951" dy="526" grid="1" gridSize="10" guides="1" tooltips="1" connect="1" arrows="1" fold="1" page="1" pageScale="1" pageWidth="827" pageHeight="1169" math="0" shadow="0">
      <root>
        <mxCell id="0" />
        <mxCell id="1" parent="0" />
        <mxCell id="NyQiIrL5542KI1mvO4O_-6" value="" style="strokeColor=#666666;html=1;verticalLabelPosition=bottom;labelBackgroundColor=#ffffff;verticalAlign=top;outlineConnect=0;shadow=0;dashed=0;shape=mxgraph.rackGeneral.rackCabinet3;fillColor2=#f4f4f4;container=1;collapsible=0;childLayout=rack;allowGaps=1;marginLeft=33;marginRight=9;marginTop=21;marginBottom=22;textColor=#666666;numDisp=ascend;" vertex="1" parent="1">
          <mxGeometry x="490" y="320" width="204" height="660" as="geometry" />
        </mxCell>
        <mxCell id="NyQiIrL5542KI1mvO4O_-12" value="" style="strokeColor=#666666;html=1;labelPosition=right;align=left;spacingLeft=15;shadow=0;dashed=0;outlineConnect=0;shape=mxgraph.rack.dell.poweredge_r440;points=[[0.57,0.8,0,0,0],[0.67,0.8,0,0,0],[0.93,0.2,0,0,0],[0.93,0.8,0,0,0]];" vertex="1" parent="NyQiIrL5542KI1mvO4O_-6">
          <mxGeometry x="33" y="330" width="162" height="15" as="geometry" />
        </mxCell>
        <mxCell id="NyQiIrL5542KI1mvO4O_-17" value="" style="strokeColor=#666666;html=1;labelPosition=right;align=left;spacingLeft=15;shadow=0;dashed=0;outlineConnect=0;shape=mxgraph.rack.dell.poweredge_r440;points=[[0.57,0.8,0,0,0],[0.67,0.8,0,0,0],[0.93,0.2,0,0,0],[0.93,0.8,0,0,0]];" vertex="1" parent="NyQiIrL5542KI1mvO4O_-6">
          <mxGeometry x="33" y="360" width="162" height="15" as="geometry" />
        </mxCell>
        <mxCell id="NyQiIrL5542KI1mvO4O_-18" value="" style="strokeColor=#666666;html=1;labelPosition=right;align=left;spacingLeft=15;shadow=0;dashed=0;outlineConnect=0;shape=mxgraph.rack.dell.poweredge_r440;points=[[0.57,0.8,0,0,0],[0.67,0.8,0,0,0],[0.93,0.2,0,0,0],[0.93,0.8,0,0,0]];" vertex="1" parent="NyQiIrL5542KI1mvO4O_-6">
          <mxGeometry x="33" y="390" width="162" height="15" as="geometry" />
        </mxCell>
        <mxCell id="NyQiIrL5542KI1mvO4O_-19" value="" style="strokeColor=#666666;html=1;labelPosition=right;align=left;spacingLeft=15;shadow=0;dashed=0;outlineConnect=0;shape=mxgraph.rack.dell.poweredge_r440;points=[[0.57,0.8,0,0,0],[0.67,0.8,0,0,0],[0.93,0.2,0,0,0],[0.93,0.8,0,0,0]];" vertex="1" parent="NyQiIrL5542KI1mvO4O_-6">
          <mxGeometry x="33" y="420" width="162" height="15" as="geometry" />
        </mxCell>
        <mxCell id="NyQiIrL5542KI1mvO4O_-16" value="" style="strokeColor=#666666;html=1;labelPosition=right;align=left;spacingLeft=15;shadow=0;dashed=0;outlineConnect=0;shape=mxgraph.rack.dell.power_strip;" vertex="1" parent="NyQiIrL5542KI1mvO4O_-6">
          <mxGeometry x="33" y="480" width="162" height="15" as="geometry" />
        </mxCell>
        <mxCell id="NyQiIrL5542KI1mvO4O_-14" value="" style="html=1;verticalLabelPosition=bottom;verticalAlign=top;outlineConnect=0;shadow=0;dashed=0;shape=mxgraph.rack.hpe_aruba.switches.j9772a_2530_48g_poeplus_switch;points=[[0.07,0,0,0,0],[0.07,1,0,0,0],[0.11,0,0,0,0],[0.11,1,0,0,0],[0.14,0,0,0,0],[0.14,1,0,0,0],[0.18,0,0,0,0],[0.18,1,0,0,0],[0.21,0,0,0,0],[0.21,1,0,0,0],[0.25,0,0,0,0],[0.25,1,0,0,0],[0.29,0,0,0,0],[0.29,1,0,0,0],[0.32,0,0,0,0],[0.32,1,0,0,0],[0.36,0,0,0,0],[0.36,1,0,0,0],[0.39,0,0,0,0],[0.39,1,0,0,0],[0.43,0,0,0,0],[0.43,1,0,0,0],[0.46,0,0,0,0],[0.46,1,0,0,0],[0.5,0,0,0,0],[0.5,1,0,0,0],[0.54,0,0,0,0],[0.54,1,0,0,0],[0.57,0,0,0,0],[0.57,1,0,0,0],[0.61,0,0,0,0],[0.61,1,0,0,0],[0.64,0,0,0,0],[0.64,1,0,0,0],[0.68,0,0,0,0],[0.68,1,0,0,0],[0.71,0,0,0,0],[0.71,1,0,0,0],[0.75,0,0,0,0],[0.75,1,0,0,0],[0.79,0,0,0,0],[0.79,1,0,0,0],[0.82,0,0,0,0],[0.82,1,0,0,0],[0.86,0,0,0,0],[0.86,1,0,0,0],[0.89,0,0,0,0],[0.89,1,0,0,0],[0.93,0,0,0,0],[0.93,1,0,0,0],[0.96,0,0,0,0],[0.96,1,0,0,0]];" vertex="1" parent="NyQiIrL5542KI1mvO4O_-6">
          <mxGeometry x="33" y="540" width="162" height="15" as="geometry" />
        </mxCell>
        <mxCell id="NyQiIrL5542KI1mvO4O_-13" value="" style="html=1;verticalLabelPosition=bottom;verticalAlign=top;outlineConnect=0;shadow=0;dashed=0;shape=mxgraph.rack.hpe_aruba.switches.j9855a_2530_48g_2sfpplus_switch;" vertex="1" parent="NyQiIrL5542KI1mvO4O_-6">
          <mxGeometry x="33" y="600" width="162" height="15" as="geometry" />
        </mxCell>
      </root>
    </mxGraphModel>
  </diagram>
</mxfile>
